<?xml version="1.0" encoding="utf-8"?>
<!-- Svg Vector Icons : http://www.onlinewebfonts.com/icon -->
<!DOCTYPE svg PUBLIC "-//W3C//DTD SVG 1.1//EN" "http://www.w3.org/Graphics/SVG/1.1/DTD/svg11.dtd">
<svg version="1.1" xmlns="http://www.w3.org/2000/svg" xmlns:xlink="http://www.w3.org/1999/xlink" x="0px" y="0px" viewBox="0 0 256 256" enable-background="new 0 0 256 256" xml:space="preserve">
<metadata> Svg Vector Icons : http://www.onlinewebfonts.com/icon </metadata>
<g><g><g><path fill="#000000" d="M30.9,30.1c-9.8,2.7-18.1,11.3-20.1,21.1c-0.4,2.2-0.6,17.8-0.5,50.3l0.2,47.2l1.4,3.4c3,7.3,9.2,13.6,16.6,16.5l3.3,1.4H128h96.3l3.4-1.4c7.3-3,13.6-9.2,16.5-16.6l1.4-3.3v-49v-49l-1.4-3.3c-3-7.4-9.2-13.6-16.5-16.6l-3.4-1.4l-95.1-0.1C47.4,29.2,33.6,29.3,30.9,30.1z M121.2,48.7C108.2,51.6,97.9,60.3,91.4,74c-4.2,9-5.4,14.5-5.4,25.7c0.1,11.3,1.2,16.8,5.4,25.6c6.5,13.8,16.7,22.4,29.8,25.4l5,1.1l-34.6,0.1L57,152l-0.4-3.5c-1.4-12.7-12-23.3-24.7-24.7l-3.5-0.4V99.7V76l3.5-0.4c12.7-1.4,23.3-12,24.7-24.7l0.4-3.5l34.6,0.1l34.6,0.1L121.2,48.7z M199.3,50.9c1.4,12.7,12,23.3,24.7,24.7l3.5,0.4v23.7v23.7l-3.5,0.4c-12.7,1.4-23.3,12-24.7,24.7L199,152l-34.6-0.1l-34.6-0.1l4.8-1.1c13.1-3,23.1-11.4,29.7-25c4.4-9,5.6-14.5,5.6-26c0-11.4-1.1-17-5.5-26c-6.5-13.5-16.7-22.1-29.7-25.1l-4.9-1.1l34.6-0.1l34.6-0.1L199.3,50.9z M133,71.7v4.1h2.7c2.4,0,11.5,1.6,12,2.1c0.1,0.1-0.4,1.5-1.1,3.2c-1.1,2.6-1.5,3-2.5,2.7c-0.7-0.2-3.7-0.8-6.8-1.3c-8.4-1.5-14.4-0.2-17,3.7c-0.8,1.2-0.8,1.8-0.2,3.2c0.9,2.1,3.4,3.4,11.8,6c10.7,3.2,15.5,5.8,17.8,9.6c1.2,2.1,1.5,6.4,0.5,9c-1.6,4.4-7.3,7.6-14.5,8.3l-3.7,0.4v4.6v4.7h-4.4H123v-4.4v-4.3l-4.8-0.4c-4.8-0.4-11.4-1.7-12.1-2.4c-0.4-0.4,0.8-4.3,1.5-5.6c0.4-0.5,1.9-0.4,5.7,0.6c9.7,2.3,21,1.4,22.7-1.9c1.1-2.1,0.7-5-1-6.6c-2.3-2.1-3.4-2.6-12.9-5.8c-12.8-4.3-16.2-6.8-16.2-12c0-6.4,6-11.3,15.2-12.6l2.5-0.4v-4.3v-4.4h4.7h4.7L133,71.7L133,71.7z"/><path fill="#000000" d="M10.3,172.4c0.8,11.2,7.6,20.4,18.1,24.6l3.3,1.4H128h96.3l3.4-1.4c7.4-3,13.8-9.4,16.5-16.6c0.7-1.8,1.4-5.4,1.6-8l0.3-4.7l-3.4,3c-3.9,3.5-9.6,6.7-14.8,8.3c-3.4,1-8,1.1-99.5,1.1c-77.1,0-96.6-0.2-98.9-0.8c-5-1.3-12.2-5.2-15.9-8.4l-3.5-3.1L10.3,172.4z"/><path fill="#000000" d="M10.3,200.7c0.2,2.6,0.9,6.2,1.6,8c2.7,7.2,9.1,13.6,16.5,16.6l3.4,1.4H128h96.3l3.4-1.4c7.4-3,13.8-9.4,16.5-16.6c0.7-1.8,1.4-5.4,1.6-8l0.3-4.7l-3.5,3.1c-4.2,3.7-11.6,7.4-17.1,8.6c-6.1,1.3-188.6,1.3-194.8,0c-5.6-1.2-12.8-4.8-17.1-8.7l-3.5-3.1L10.3,200.7z"/></g></g></g>
</svg>